<?xml version="1.0" encoding="UTF-8" standalone="no"?>
<!-- Created with Inkscape (http://www.inkscape.org/) -->

<svg
   xmlns:svg="http://www.w3.org/2000/svg"
   xmlns="http://www.w3.org/2000/svg"
   xmlns:xlink="http://www.w3.org/1999/xlink"
   version="1.1"
   width="580"
   height="420"
   viewBox="0 0 580 420"
   id="svg2">
  <desc
     id="desc4">Produced by GNUPLOT 4.0 patchlevel 0 </desc>
  <defs
     id="defs6">
    <circle
       cx="0"
       cy="0"
       r="1"
       id="gpDot" />
    <path
       d="M -1,0 H 1 M 0,-1 v 2"
       id="gpPt0"
       style="stroke-width:0.222" />
    <path
       d="M -1,-1 1,1 M 1,-1 -1,1"
       id="gpPt1"
       style="stroke-width:0.222" />
    <path
       d="M -1,0 1,0 M 0,-1 0,1 m -1,-2 2,2 m -2,0 2,-2"
       id="gpPt2"
       style="stroke-width:0.222" />
    <rect
       width="2"
       height="2"
       x="-1"
       y="-1"
       id="gpPt3"
       style="stroke-width:0.222" />
    <use
       id="gpPt4"
       style="fill:currentColor;stroke:none"
       x="0"
       y="0"
       width="600"
       height="480"
       xlink:href="#gpPt3" />
    <circle
       cx="0"
       cy="0"
       r="1"
       id="gpPt5"
       style="stroke-width:0.222" />
    <use
       id="gpPt6"
       style="fill:currentColor;stroke:none"
       x="0"
       y="0"
       width="600"
       height="480"
       xlink:href="#gpPt5" />
    <path
       d="m 0,-1.33 -1.33,2 2.66,0 z"
       id="gpPt7"
       style="stroke-width:0.222" />
    <use
       id="gpPt8"
       style="fill:currentColor;stroke:none"
       x="0"
       y="0"
       width="600"
       height="480"
       xlink:href="#gpPt7" />
    <use
       transform="scale(-1,-1)"
       id="gpPt9"
       x="0"
       y="0"
       width="600"
       height="480"
       xlink:href="#gpPt7" />
    <use
       id="gpPt10"
       style="fill:currentColor;stroke:none"
       x="0"
       y="0"
       width="600"
       height="480"
       xlink:href="#gpPt9" />
    <use
       transform="matrix(0.70710678,0.70710678,-0.70710678,0.70710678,0,0)"
       id="gpPt11"
       x="0"
       y="0"
       width="600"
       height="480"
       xlink:href="#gpPt3" />
    <use
       id="gpPt12"
       style="fill:currentColor;stroke:none"
       x="0"
       y="0"
       width="600"
       height="480"
       xlink:href="#gpPt11" />
  </defs>
  <path
     d="m 33.192381,383 -9,0 m 9,0 9,0"
     id="path24"
     style="color:#000000;fill:none;stroke:currentColor;stroke-width:1" />
  <g
     transform="translate(25.192381,387)"
     id="g26"
     style="font-size:12px;text-anchor:end;color:#000000;fill:#000000;stroke:none;font-family:Arial">
    <text
       id="text28">0</text>
  </g>
  <path
     d="m 33.192381,316 -9,0 m 9,0 9,0"
     id="path30"
     style="color:#000000;fill:none;stroke:currentColor;stroke-width:1" />
  <g
     transform="translate(25.192381,320)"
     id="g32"
     style="font-size:12px;text-anchor:end;color:#000000;fill:#000000;stroke:none;font-family:Arial">
    <text
       id="text34">0.2</text>
  </g>
  <path
     d="m 33.192381,249 -9,0 m 9,0 9,0"
     id="path36"
     style="color:#000000;fill:none;stroke:currentColor;stroke-width:1" />
  <g
     transform="translate(25.192381,253)"
     id="g38"
     style="font-size:12px;text-anchor:end;color:#000000;fill:#000000;stroke:none;font-family:Arial">
    <text
       id="text40">0.4</text>
  </g>
  <path
     d="m 33.192381,181 -9,0 m 9,0 9,0"
     id="path42"
     style="color:#000000;fill:none;stroke:currentColor;stroke-width:1" />
  <g
     transform="translate(25.192381,185)"
     id="g44"
     style="font-size:12px;text-anchor:end;color:#000000;fill:#000000;stroke:none;font-family:Arial">
    <text
       id="text46">0.6</text>
  </g>
  <path
     d="m 33.192381,114 -9,0 m 9,0 9,0"
     id="path48"
     style="color:#000000;fill:none;stroke:currentColor;stroke-width:1" />
  <g
     transform="translate(25.192381,118)"
     id="g50"
     style="font-size:12px;text-anchor:end;color:#000000;fill:#000000;stroke:none;font-family:Arial">
    <text
       id="text52">0.8</text>
  </g>
  <path
     d="m 33.192381,47 -9,0 m 9,0 9,0"
     id="path54"
     style="color:#000000;fill:none;stroke:currentColor;stroke-width:1" />
  <g
     transform="translate(25.192381,51)"
     id="g56"
     style="font-size:12px;text-anchor:end;color:#000000;fill:#000000;stroke:none;font-family:Arial">
    <text
       id="text58">1</text>
  </g>
  <path
     d="m 33.192381,383 0,9 m 0,-9 0,-9"
     id="path60"
     style="color:#000000;fill:none;stroke:currentColor;stroke-width:1" />
  <g
     transform="translate(33.192381,405)"
     id="g62"
     style="font-size:12px;text-anchor:middle;color:#000000;fill:#000000;stroke:none;font-family:Arial">
    <text
       id="text64">0</text>
  </g>
  <path
     d="m 87.192381,383 0,9 m 0,-9 0,-9"
     id="path66"
     style="color:#000000;fill:none;stroke:currentColor;stroke-width:1" />
  <g
     transform="translate(87.192381,405)"
     id="g68"
     style="font-size:12px;text-anchor:middle;color:#000000;fill:#000000;stroke:none;font-family:Arial">
    <text
       id="text70">0.1</text>
  </g>
  <path
     d="m 140.19238,383 0,9 m 0,-9 0,-9"
     id="path72"
     style="color:#000000;fill:none;stroke:currentColor;stroke-width:1" />
  <g
     transform="translate(140.19238,405)"
     id="g74"
     style="font-size:12px;text-anchor:middle;color:#000000;fill:#000000;stroke:none;font-family:Arial">
    <text
       id="text76">0.2</text>
  </g>
  <path
     d="m 194.19238,383 0,9 m 0,-9 0,-9"
     id="path78"
     style="color:#000000;fill:none;stroke:currentColor;stroke-width:1" />
  <g
     transform="translate(194.19238,405)"
     id="g80"
     style="font-size:12px;text-anchor:middle;color:#000000;fill:#000000;stroke:none;font-family:Arial">
    <text
       id="text82">0.3</text>
  </g>
  <path
     d="m 247.19238,383 0,9 m 0,-9 0,-9"
     id="path84"
     style="color:#000000;fill:none;stroke:currentColor;stroke-width:1" />
  <g
     transform="translate(247.19238,405)"
     id="g86"
     style="font-size:12px;text-anchor:middle;color:#000000;fill:#000000;stroke:none;font-family:Arial">
    <text
       id="text88">0.4</text>
  </g>
  <path
     d="m 301.19238,383 0,9 m 0,-9 0,-9"
     id="path90"
     style="color:#000000;fill:none;stroke:currentColor;stroke-width:1" />
  <g
     transform="translate(301.19238,405)"
     id="g92"
     style="font-size:12px;text-anchor:middle;color:#000000;fill:#000000;stroke:none;font-family:Arial">
    <text
       id="text94">0.5</text>
  </g>
  <path
     d="m 354.19238,383 0,9 m 0,-9 0,-9"
     id="path96"
     style="color:#000000;fill:none;stroke:currentColor;stroke-width:1" />
  <g
     transform="translate(354.19238,405)"
     id="g98"
     style="font-size:12px;text-anchor:middle;color:#000000;fill:#000000;stroke:none;font-family:Arial">
    <text
       id="text100">0.6</text>
  </g>
  <path
     d="m 407.19238,383 0,9 m 0,-9 0,-9"
     id="path102"
     style="color:#000000;fill:none;stroke:currentColor;stroke-width:1" />
  <g
     transform="translate(407.19238,405)"
     id="g104"
     style="font-size:12px;text-anchor:middle;color:#000000;fill:#000000;stroke:none;font-family:Arial">
    <text
       id="text106">0.7</text>
  </g>
  <path
     d="m 461.19238,383 0,9 m 0,-9 0,-9"
     id="path108"
     style="color:#000000;fill:none;stroke:currentColor;stroke-width:1" />
  <g
     transform="translate(461.19238,405)"
     id="g110"
     style="font-size:12px;text-anchor:middle;color:#000000;fill:#000000;stroke:none;font-family:Arial">
    <text
       id="text112">0.8</text>
  </g>
  <path
     d="m 514.19238,383 0,9 m 0,-9 0,-9"
     id="path114"
     style="color:#000000;fill:none;stroke:currentColor;stroke-width:1" />
  <g
     transform="translate(514.19238,405)"
     id="g116"
     style="font-size:12px;text-anchor:middle;color:#000000;fill:#000000;stroke:none;font-family:Arial">
    <text
       id="text118">0.9</text>
  </g>
  <path
     d="m 568.19238,383 0,9 m 0,-9 0,-9"
     id="path120"
     style="color:#000000;fill:none;stroke:currentColor;stroke-width:1" />
  <g
     transform="translate(568.19238,405)"
     id="g122"
     style="font-size:12px;text-anchor:middle;color:#000000;fill:#000000;stroke:none;font-family:Arial">
    <text
       id="text124">1</text>
  </g>
  <path
     d="m 33.192381,383 534.999999,0 0,-336 -534.999999,0 0,336"
     id="path126"
     style="color:#000000;fill:none;stroke:currentColor;stroke-width:1" />
  <path
     d="m 15.608397,222.71777 c 0,0.58106 0,1.16211 0,1.74317 -1.061688,0.12066 -2.179999,-0.20909 -2.831465,-1.09893 -0.615364,-0.65753 -1.196089,-1.84544 -2.283146,-1.49045 -1.3916374,0.53358 -1.2312784,2.84392 0.146598,3.31004 0.773011,-0.0313 0.524535,0.56148 0.47074,1.05728 -0.127625,0.29561 0.111965,1.05911 -0.410287,0.85534 -1.6549655,-0.24158 -2.7247858,-1.95013 -2.6324795,-3.5493 -0.093414,-1.5865 0.9064172,-3.39226 2.5952555,-3.5941 1.410927,-0.19567 2.346559,1.08118 3.15409,2.02317 0.409723,0.60194 1.086827,0.81842 1.790694,0.74378 z m 2.583984,1.74317 c -0.6403,0 -1.280599,0 -1.920899,0 0,-0.6403 0,-1.2806 0,-1.9209 0.6403,0 1.280599,0 1.920899,0 0,0.6403 0,1.2806 0,1.9209 z m 2.946289,-9.3584 c 0,0.43978 0,0.87956 0,1.31934 -2.814011,1.90525 -6.475545,2.73893 -9.759106,1.65785 -1.200793,-0.39181 -2.3428283,-0.96405 -3.3795659,-1.6852 0,-0.4375 0,-0.875 0,-1.3125 2.3183339,1.09441 4.8653409,1.83455 7.4520279,1.61131 1.984554,-0.1302 3.906565,-0.71773 5.686644,-1.5908 z m -4.983398,-4.38867 c 0.679036,0.60156 1.358072,1.20312 2.037109,1.80468 0,0.80209 0,1.60417 0,2.40625 -1.239583,-1.11881 -2.479167,-2.23763 -3.71875,-3.35644 -1.180339,0.61523 -2.360677,1.23047 -3.541016,1.8457 0,-0.69498 0,-1.38997 0,-2.08496 0.69043,-0.35319 1.38086,-0.70638 2.071289,-1.05957 -0.690429,-0.61295 -1.380859,-1.22591 -2.071289,-1.83887 0,-0.79524 0,-1.59049 0,-2.38574 1.255534,1.12337 2.511068,2.24675 3.766602,3.37012 1.164388,-0.61068 2.328776,-1.22136 3.493164,-1.83203 0,0.69498 0,1.38997 0,2.08496 -0.679037,0.34863 -1.358073,0.69726 -2.037109,1.0459 z m 4.983398,-4.36133 c -3.465661,-1.77133 -7.680536,-2.19232 -11.3327666,-0.73514 -0.5491307,0.0491 -1.6140075,0.95238 -1.8059053,0.52824 0,-0.3617 0,-0.7234 0,-1.08509 2.5403349,-1.82533 5.8490049,-2.6705 8.9170009,-1.87599 1.509673,0.33436 2.935193,0.99088 4.221671,1.84181 0,0.44205 0,0.88411 0,1.32617 z"
     id="text130"
     style="font-size:12px;text-anchor:middle;color:#000000;fill:#000000;stroke:none;font-family:Arial" />
  <text
     x="300.19238"
     y="414"
     id="text134"
     style="font-size:12px;text-anchor:middle;color:#000000;fill:#000000;stroke:none;font-family:Arial">
    <tspan
       id="tspan2966"
       style="font-size:14px;font-style:italic;font-weight:bold">x</tspan>
  </text>
  <path
     d="m 178.20996,22.330078 c -0.90244,4.240745 -6.45476,-1.467576 -8.72925,-3.458248 -2.11756,-5.712673 5.74782,-10.0770674 8.72925,-8.653241 6.52213,0.564742 9.89016,11.767327 0,12.111489 z m 0,-2.412109 c 8.36937,-3.912531 -2.85952,-9.621799 0,-0.09372 l 0,0.09372 z m -2.83203,0 c 1.07544,-3.945434 -1.12031,-10.0549995 -3.44727,-3.115235 -0.23659,1.948687 1.63128,3.339139 3.44727,3.115235 z m 10.08789,-6.289063 c 4.21072,-1.338375 3.71933,3.869001 5.09971,6.470702 1.45907,1.528784 1.13609,-6.692336 3.77302,-6.470702 3.79708,-0.400677 -0.90939,5.136379 -0.92256,7.396266 -0.19843,3.762868 -5.8639,10.952651 -7.27918,4.930312 5.63931,0.387788 1.55303,-5.890881 0.66628,-8.801355 -0.44576,-1.175074 -0.89151,-2.350149 -1.33727,-3.525223 z m 12.32422,0 c 4.9956,-1.93923 0.4883,5.624444 5.37029,3.798828 1.76657,0.07683 1.52542,-7.028513 4.05354,-2.748368 -0.35641,2.925545 0.70954,7.27345 -0.52523,9.320634 -4.64095,1.570847 0.22728,-6.36748 -4.85483,-4.355469 -2.50833,-0.258293 -0.20613,7.173235 -4.04377,3.830239 0,-3.281955 0,-6.563909 0,-9.845864 z m 12.07031,0 c 5.11661,-2.292013 0.99913,9.290788 4.93652,1.066902 8.74473,-3.116063 -3.84835,4.112282 2.22168,6.442864 3.89108,3.826174 -2.64463,3.942626 -2.72358,-0.006 -2.88812,-4.835836 -0.37373,6.475473 -4.43462,2.342079 0,-3.281955 0,-6.563909 0,-9.845864 z m 10.00977,0 c 4.56517,-1.374459 2.16407,4.217348 2.74414,6.82799 0.75433,3.373508 5.93636,0.802764 3.91601,-2.875532 -1.96108,-3.866882 3.77171,-6.043232 2.74414,-1.326308 -0.77355,3.852979 1.0554,5.10346 1.08399,8.154297 -0.47518,5.592152 -2.0401,-0.410771 -3.79249,-0.409353 -2.90085,-0.381541 -8.17053,1.605751 -6.69579,-3.15138 0,-2.406571 0,-4.813142 0,-7.219714 z m 12.33398,0 c 4.40812,-1.35799 2.07154,4.028717 2.63672,6.513672 2.14386,-2.102628 2.69883,-7.127362 6.31967,-6.513672 1.43153,1.742908 0.16627,6.182596 0.59439,8.928909 -1.41292,4.316993 -3.83936,-0.968192 -2.63672,-3.810115 -0.0745,-2.836911 -2.99719,3.995937 -4.27734,5.2523 -4.50375,1.348848 -2.01127,-4.298536 -2.63672,-6.827989 0,-1.181035 0,-2.36207 0,-3.543105 z m 21.25977,0 c 0,3.457032 0,6.914063 0,10.371094 -5.26752,2.511758 -0.32416,-8.145831 -5.3711,-2.900391 -0.0152,3.368361 -7.37242,4.324583 -3.56476,0.701126 4.34592,-1.945756 -4.43775,-6.481473 2.17438,-8.107124 2.25072,-0.125358 4.50818,-0.03951 6.76148,-0.06471 z m -2.72461,1.767578 c -8.32968,-1.100861 1.02582,6.490706 0,0.03987 l 0,-0.03987 z M 261.78418,24 c 0,-4.772135 0,-9.544271 0,-14.3164062 4.13768,-1.2290443 5.27859,1.4400292 5.67633,5.0757972 0.82334,4.841028 1.6403,5.128166 2.44983,0.118222 0.45697,-3.545829 1.38374,-6.4823354 5.56787,-5.1940192 0.31315,4.5036842 0.0445,9.5891722 0.13409,14.3164062 -4.5319,1.36073 -2.0806,-4.261751 -2.68554,-6.827989 0.29992,-5.64728 -0.34209,-3.706874 -1.28425,0.65133 -1.10797,2.493915 -0.22527,7.542794 -4.34075,6.176659 -0.94401,-3.75651 -1.88802,-7.513021 -2.83203,-11.269531 0,3.75651 0,7.513021 0,11.269531 -0.89519,0 -1.79037,0 -2.68555,0 z m 16.63086,-10.371094 c 4.40812,-1.35799 2.07154,4.028717 2.63672,6.513672 2.14385,-2.102628 2.69883,-7.127362 6.31967,-6.513672 1.43152,1.742908 0.16627,6.182596 0.59439,8.928909 -1.41292,4.316993 -3.83936,-0.968192 -2.63672,-3.810115 -0.0745,-2.836911 -2.99719,3.995937 -4.27734,5.2523 -4.50375,1.348848 -2.01127,-4.298536 -2.63672,-6.827989 0,-1.181035 0,-2.36207 0,-3.543105 z m 12.26562,0 c 4.99561,-1.93923 0.48831,5.624444 5.37029,3.798828 1.76658,0.07683 1.52543,-7.028513 4.05354,-2.748368 -0.35641,2.925545 0.70954,7.27345 -0.52523,9.320634 -4.64094,1.570847 0.22729,-6.36748 -4.85482,-4.355469 -2.50834,-0.258293 -0.20614,7.173235 -4.04378,3.830239 0,-3.281955 0,-6.563909 0,-9.845864 z m 12.07032,0 c 5.11661,-2.292013 0.99913,9.290788 4.93652,1.066902 8.74473,-3.116063 -3.84836,4.112282 2.22168,6.442864 3.89108,3.826174 -2.64464,3.942626 -2.72358,-0.006 -2.88812,-4.835836 -0.37373,6.475473 -4.43462,2.342079 0,-3.281955 0,-6.563909 0,-9.845864 z m 9.47265,5.039063 c 3.16445,-14.7000859 19.31578,6.013721 3.96851,5.405273 -2.53147,-0.443822 -4.13821,-2.921479 -3.96851,-5.405273 z m 2.8125,0.146484 c 6.39674,12.370896 6.18011,-12.0854125 0,0 z m 10.07813,-5.185547 c 3.60521,-0.581016 13.3877,0.150597 7.91992,5.078125 6.12433,4.26789 -3.37086,6.237024 -7.16425,5.292969 -1.76301,-1.465182 -0.25277,-6.203618 -0.75567,-8.928909 0,-0.480728 0,-0.961457 0,-1.442185 z m 2.76367,4.306641 c 9.76677,1.446202 -0.29232,-7.337502 0,0 z m 0,4.306641 c 8.3191,1.474927 0.32451,-6.436795 0,-0.535799 l 0,0.52523 0,0.01057 z m 18.55469,-5.546876 c -3.37374,1.026511 -7.77253,-3.509193 -6.67115,3.508304 1.0686,4.50805 9.52984,-4.135119 5.19654,3.083493 -10.53303,6.085758 -10.30607,-14.7626598 -0.13184,-9.077148 l 0.96069,1.029059 0.64576,1.456292 z m 1.98242,-3.066406 c 5.11661,-2.292013 0.99913,9.290788 4.93652,1.066902 8.74473,-3.116063 -3.84835,4.112282 2.22168,6.442864 3.89108,3.826174 -2.64463,3.942626 -2.72358,-0.006 -2.88812,-4.835836 -0.37373,6.475473 -4.43462,2.342079 0,-3.281955 0,-6.563909 0,-9.845864 z m 9.47266,5.039063 c 3.16444,-14.7000859 19.31578,6.013721 3.9685,5.405273 -2.53146,-0.443822 -4.13821,-2.921479 -3.9685,-5.405273 z m 2.8125,0.146484 c 6.39674,12.370896 6.1801,-12.0854125 0,0 z m 9.9414,-5.185547 c 2.35807,0.71485 8.00773,-1.861894 7.00195,2.216797 -4.46836,-1.298329 -4.79609,1.543975 -4.25781,5.2523 1.31547,4.601349 -4.66951,3.363924 -2.74414,-0.774613 0,-2.231494 0,-4.462989 0,-6.694484 z m 7.79297,5.039063 c 3.16445,-14.7000859 19.31578,6.013721 3.9685,5.405273 -2.53146,-0.443822 -4.13821,-2.921479 -3.9685,-5.405273 z m 2.8125,0.146484 c 6.39674,12.370896 6.1801,-12.0854125 0,0 z m 21.49414,1.494141 c -7.59462,0.997534 7.2834,-10.9084223 -2.8125,-8.085938 -5.23684,5.961175 -2.27061,-6.0213737 3.75244,-2.376698 7.10681,3.078719 -0.15238,6.73768 -0.93994,10.462636 z M 400.25098,24 c -1.77834,-4.606872 5.27997,-2.648434 2.21891,0 -0.73964,0 -1.47928,0 -2.21891,0 z m 13.36914,4.208984 c -6.36391,-1.647428 -5.91177,-12.988434 -2.46216,-17.82531 5.31594,-3.2624663 -3.0855,10.035639 0.79834,13.408807 0.36241,1.538238 1.00953,2.986285 1.66382,4.416503 z m 6.26953,-7.11914 c -0.32422,2.850192 -8.03398,4.469233 -4.60797,1.350552 3.12231,-2.301087 3.90376,-4.900766 1.20234,-7.94471 0.87403,-4.371738 4.13871,4.515804 5.4352,0.5211 2.70375,-3.112451 6.35282,-0.966303 1.83859,1.743505 -4.68244,1.656979 1.98269,6.52201 -0.44597,7.239709 -2.41449,0.678977 -2.43479,-1.29849 -3.42219,-2.910156 z m 6.23047,7.11914 c 4.86917,-5.379522 -0.0799,-15.913933 1.55616,-18.7695309 4.55895,4.6042869 4.73995,15.2959899 -0.71209,18.7695309 l -0.52523,0 -0.31884,0 z"
     id="text138"
     style="font-size:12px;text-anchor:middle;color:#000000;fill:#000000;stroke:none;font-family:Arial" />
  <g
     transform="translate(-6.807619,-6.9999998)"
     id="g140"
     style="color:#000000;fill:none;stroke:currentColor;stroke-width:2" />
  <g
     transform="translate(-6.807619,-6.9999998)"
     id="g142"
     style="color:#ff0000;fill:none;stroke:currentColor;stroke-width:2">
    <path
       d="m 40,390 1,0 1,0 1,0 1,0 1,0 1,0 1,0 1,0 1,0 1,0 1,0 2,0 1,0 1,0 1,0 1,0 1,0 1,0 1,0 1,0 1,0 1,0 1,0 1,0 1,0 1,0 1,0 1,0 1,0 1,0 1,0 1,0 1,0 2,0 1,0 1,0 1,0 1,0 1,0 1,0 1,0 1,0 1,0 1,0 1,0 1,0 1,0 1,0 1,-1 1,0 1,0 1,0 1,0 1,0 1,0 2,0 1,0 1,0 1,-1 1,0 1,0 1,0 1,-1 1,0 1,0 1,0 1,0 1,-1 1,0 1,-1 1,0 1,0 1,0 1,0 1,0 1,-1 1,-1 2,-1 1,0 1,-1 1,0 1,-1 1,0 1,0 1,-1 1,0 1,0 1,0 1,-1 1,-1 1,-1 1,-1 1,-1 1,0 1,-1 1,-1 1,-1 1,-1 1,-1 1,0 2,0 1,0 1,0 1,0 1,0 1,-1 1,-1 1,-1 1,-2 1,0 1,-2 1,-2 1,-1 1,-1 1,0 1,-2 1,-1 1,-2 1,0 1,-2 1,-1 1,-1 2,0 1,-1 1,0 1,0 1,0 1,0 1,0 1,0 1,0 1,0 1,-1 1,-1 1,-1 1,-2 1,-1 1,-2 1,-2 1,-1 1,-1 1,-4 1,-1 1,-3 2,-1 1,0 1,0 1,0 1,-2 1,-2 1,-2 1,-3 1,-1 1,-1 1,-1 1,-1 1,-3 1,0 1,-1 1,-1 1,-1 1,-1 1,0 1,-1 1,0 1,0 2,0 1,0 1,0 1,0 1,0 1,0 1,0 1,0 1,0 1,0 1,0 1,-1 1,0 1,-1 1,-1 1,-2 1,0 1,-2 1,-2 1,-2 1,0 1,-3 1,-2 2,-3 1,-2 1,0 1,0 1,-2 1,-3 1,-4 1,-2 1,-2 1,-3 1,-2 1,-2 1,-1 1,0 1,0 1,0 1,0 1,0 1,-1 1,-1 1,-2 1,-1 2,-3 1,-2 1,-1 1,-3 1,-2 1,-3 1,-2 1,0 1,0 1,0 1,-1 1,-2 1,-2 1,-2 1,-2 1,-1 1,-1 1,0 1,-2 1,-1 1,-2 1,0 2,0 1,-1 1,-1 1,-1 1,0 1,-1 1,0 1,0 1,-1 1,0 1,0 1,0 1,0 1,0 1,0 1,0 1,0 1,0 1,0 1,0 1,0 1,0 2,0 1,0 1,0 1,0 1,0 1,0 1,0 1,0 1,0 1,0 1,0 1,0 1,0 1,0 1,0 1,-1 1,0 1,0 1,-1 1,0 1,-1 1,-1 1,-1 2,0 1,0 1,-2 1,-1 1,-2 1,0 1,-1 1,-1 1,-2 1,-2 1,-2 1,-2 1,-1 1,0 1,0 1,0 1,-2 1,-3 1,-2 1,-3 1,-1 1,-2 2,-3 1,-1 1,-2 1,-1 1,-1 1,0 1,0 1,0 1,0 1,0 1,-1 1,-2 1,-2 1,-3 1,-3 1,-1 1,-4 1,-3 1,-2 1,0 1,0 1,-2 2,-3 1,-2 1,-3 1,-1 1,-1 1,-2 1,-2 1,0 1,-2 1,-1 1,-1 1,0 1,-1 1,0 1,0 1,0 1,0 1,0 1,0 1,0 1,0 1,0 1,0 2,0 1,0 1,0 1,-1 1,0 1,-1 1,-1 1,-1 1,-1 1,0 1,-3 1,-1 1,-1 1,-1 1,-1 1,-3 1,-2 1,-2 1,-2 1,0 1,0 1,0 2,-1 1,-3 1,-1 1,-4 1,-1 1,-1 1,-2 1,-2 1,-1 1,-2 1,-1 1,-1 1,-1 1,0 1,0 1,0 1,0 1,0 1,0 1,0 1,0 1,-1 2,0 1,-1 1,-1 1,-2 1,0 1,-2 1,-1 1,-2 1,-1 1,0 1,-1 1,-2 1,-2 1,0 1,-2 1,-1 1,-1 1,-1 1,0 1,0 1,0 1,0 2,0 1,0 1,-1 1,-1 1,-1 1,-1 1,-1 1,0 1,-1 1,-1 1,-1 1,-1 1,-1 1,0 1,-1 1,0 1,0 1,0 1,0 1,-1 1,0 1,-1 1,0 2,-1 1,-1 1,-1 1,0 1,0 1,0 1,0 1,0 1,-1 1,0 1,-1 1,0 1,0 1,0 1,0 1,-1 1,0 1,0 1,0 1,-1 1,0 1,0 2,0 1,0 1,0 1,0 1,0 1,0 1,0 1,-1 1,0 1,0 1,0 1,0 1,0 1,0 1,0 1,0 1,0 1,0 1,0 1,0 1,0 1,0 2,0 1,0 1,0 1,0 1,0 1,0 1,0 1,0 1,0 1,0 1,0 1,0 1,0 1,0 1,0 1,0 1,0 1,0 1,0 1,0 1,0 1,0 2,0 1,0 1,0 1,0 1,0 1,0 1,0 1,0 1,0 1,0 1,0"
       id="path144" />
  </g>
  <g
     transform="translate(-6.807619,-6.9999998)"
     id="g146"
     style="color:#ff0000;fill:none;stroke:currentColor;stroke-width:1" />
  <g
     transform="translate(-6.807619,-6.9999998)"
     id="g148"
     style="color:#000000;fill:none;stroke:currentColor;stroke-width:1">
    <path
       d="m 40,390 535,0 0,-336 -535,0 0,336"
       id="path150" />
  </g>
</svg>
